<svg>
<symbol id="straighteners" width="22" height="36" viewBox="0 0 40 40" fill="none" xmlns="http://www.w3.org/2000/svg">
<path d="M15.9786 28.5907L10.2207 9.30628C9.39814 6.65581 10.9519 3.82256 13.6023 3L19.9086 24.2037" stroke="#2C001B" stroke-width="1.26606" stroke-miterlimit="10" stroke-linecap="round" stroke-linejoin="round"/>
<path d="M20.0914 24.2037L26.3977 3C29.0482 3.82256 30.6019 6.65581 29.7793 9.30628L24.0214 28.7735C24.0214 28.7735 23.93 29.2305 23.7472 29.5961C23.5645 30.053 23.3817 30.51 23.1075 30.8756C22.5591 31.6068 21.8279 32.0637 20.914 32.2465C20.2742 32.4293 19.6344 32.4293 19.0861 32.2465C18.3549 32.0637 17.7151 31.6981 17.1668 31.1498C16.7098 30.6928 16.4356 30.053 16.2528 29.4133C16.1614 29.0477 15.9786 28.5907 15.9786 28.5907C15.9786 28.4993 15.9786 28.3165 15.9786 28.2251C15.9786 26.0316 17.8065 24.2037 20 24.2037" fill="url(#paint0_linear_2374_17050)"/>
<path d="M20.0914 24.2037L26.3977 3C29.0482 3.82256 30.6019 6.65581 29.7793 9.30628L24.0214 28.7735C24.0214 28.7735 23.93 29.2305 23.7472 29.5961C23.5645 30.053 23.3817 30.51 23.1075 30.8756C22.5591 31.6068 21.8279 32.0637 20.914 32.2465C20.2742 32.4293 19.6344 32.4293 19.0861 32.2465C18.3549 32.0637 17.7151 31.6981 17.1668 31.1498C16.7098 30.6928 16.4356 30.053 16.2528 29.4133C16.1614 29.0477 15.9786 28.5907 15.9786 28.5907C15.9786 28.4993 15.9786 28.3165 15.9786 28.2251C15.9786 26.0316 17.8065 24.2037 20 24.2037" stroke="#2C001B" stroke-width="1.26606" stroke-miterlimit="10" stroke-linecap="round" stroke-linejoin="round"/>
<path d="M20.0914 32.3379V36.9991" stroke="#2C001B" stroke-width="1.26606" stroke-miterlimit="10" stroke-linecap="round" stroke-linejoin="round"/>
<path d="M20.0914 29.8711C20.9495 29.8711 21.6451 29.1755 21.6451 28.3174C21.6451 27.4593 20.9495 26.7637 20.0914 26.7637C19.2333 26.7637 18.5377 27.4593 18.5377 28.3174C18.5377 29.1755 19.2333 29.8711 20.0914 29.8711Z" fill="white" stroke="#2C001B" stroke-width="1.26606" stroke-miterlimit="10" stroke-linecap="round" stroke-linejoin="round"/>
<defs>
<linearGradient id="paint0_linear_2374_17050" x1="22.9893" y1="3" x2="22.9893" y2="32.3836" gradientUnits="userSpaceOnUse">
<stop stop-color="#FF84B7"/>
<stop offset="0.46875" stop-color="#EF5997"/>
<stop offset="1" stop-color="#E84287"/>
</linearGradient>
</defs>
</symbol>
<symbol id="arrow-up" width="12" height="12" viewBox="0 0 12 12" fill="none" xmlns="http://www.w3.org/2000/svg">
<path d="M9.34004 6.98914L7.73504 5.38414L6.75504 4.39914C6.34004 3.98414 5.66504 3.98414 5.25004 4.39914L2.66004 6.98914C2.32004 7.32914 2.56504 7.90914 3.04004 7.90914H5.84504H8.96004C9.44004 7.90914 9.68004 7.32914 9.34004 6.98914Z" fill="#181718"/>
</symbol>
<symbol id="Straightener" width="26" height="43" viewBox="0 0 26 43" fill="none" xmlns="http://www.w3.org/2000/svg">
<path d="M8.17433 31.8085L1.26483 8.66714C0.277764 5.48658 2.14223 2.08668 5.32279 1.09961L12.8903 26.5441" stroke="#2C001B" stroke-width="1.26606" stroke-miterlimit="10" stroke-linecap="round" stroke-linejoin="round"/>
<path d="M13.1097 26.5441L20.6772 1.09961C23.8578 2.08668 25.7222 5.48658 24.7352 8.66714L17.8257 32.0278C17.8257 32.0278 17.716 32.5762 17.4966 33.0149C17.2773 33.5633 17.0579 34.1116 16.7289 34.5503C16.0709 35.4277 15.1935 35.9761 14.0967 36.1954C13.329 36.4148 12.5613 36.4148 11.9032 36.1954C11.0258 35.9761 10.2581 35.5374 9.60007 34.8793C9.0517 34.331 8.72268 33.5632 8.50333 32.7955C8.39365 32.3568 8.17432 31.8085 8.17432 31.8085C8.17432 31.6988 8.17432 31.4794 8.17432 31.3698C8.17432 28.7376 10.3678 26.5441 13 26.5441" fill="url(#paint0_linear_3545_16089)"/>
<path d="M13.1097 26.5441L20.6772 1.09961C23.8578 2.08668 25.7222 5.48658 24.7352 8.66714L17.8257 32.0278C17.8257 32.0278 17.716 32.5762 17.4966 33.0149C17.2773 33.5633 17.0579 34.1116 16.7289 34.5503C16.0709 35.4277 15.1935 35.9761 14.0967 36.1954C13.329 36.4148 12.5613 36.4148 11.9032 36.1954C11.0258 35.9761 10.2581 35.5374 9.60007 34.8793C9.0517 34.331 8.72268 33.5632 8.50333 32.7955C8.39365 32.3568 8.17432 31.8085 8.17432 31.8085C8.17432 31.6988 8.17432 31.4794 8.17432 31.3698C8.17432 28.7376 10.3678 26.5441 13 26.5441" stroke="#2C001B" stroke-width="1.26606" stroke-miterlimit="10" stroke-linecap="round" stroke-linejoin="round"/>
<path d="M13.1096 36.3047V41.8981" stroke="#2C001B" stroke-width="1.26606" stroke-miterlimit="10" stroke-linecap="round" stroke-linejoin="round"/>
<path d="M13.1096 33.3442C14.1393 33.3442 14.9741 32.5094 14.9741 31.4797C14.9741 30.45 14.1393 29.6152 13.1096 29.6152C12.0799 29.6152 11.2451 30.45 11.2451 31.4797C11.2451 32.5094 12.0799 33.3442 13.1096 33.3442Z" fill="white" stroke="#2C001B" stroke-width="1.26606" stroke-miterlimit="10" stroke-linecap="round" stroke-linejoin="round"/>
<defs>
<linearGradient id="paint0_linear_3545_16089" x1="16.5872" y1="1.09961" x2="16.5872" y2="36.36" gradientUnits="userSpaceOnUse">
<stop stop-color="#FF84B7"/>
<stop offset="0.46875" stop-color="#EF5997"/>
<stop offset="1" stop-color="#E84287"/>
</linearGradient>
</defs>
</symbol>

</svg>
