<svg>
<symbol id='success' width="33" height="32" viewBox="0 0 33 32" fill="none" xmlns="http://www.w3.org/2000/svg">
<path d="M25.2201 5.49378L17.8867 2.74711C17.1267 2.46711 15.8867 2.46711 15.1267 2.74711L7.7934 5.49378C6.38006 6.02711 5.2334 7.68044 5.2334 9.18711V19.9871C5.2334 21.0671 5.94007 22.4938 6.80673 23.1338L14.1401 28.6138C15.4334 29.5871 17.5534 29.5871 18.8467 28.6138L26.1801 23.1338C27.0467 22.4804 27.7534 21.0671 27.7534 19.9871V9.18711C27.7667 7.68044 26.6201 6.02711 25.2201 5.49378ZM21.1401 12.9604L15.4067 18.6938C15.2067 18.8938 14.9534 18.9871 14.7001 18.9871C14.4467 18.9871 14.1934 18.8938 13.9934 18.6938L11.8601 16.5338C11.4734 16.1471 11.4734 15.5071 11.8601 15.1204C12.2467 14.7338 12.8867 14.7338 13.2734 15.1204L14.7134 16.5604L19.7401 11.5338C20.1267 11.1471 20.7667 11.1471 21.1534 11.5338C21.5401 11.9204 21.5401 12.5738 21.1401 12.9604Z" fill="#28A745"/>
</symbol>
<symbol id='delete' width="33" height="32" viewBox="0 0 33 32" fill="none" xmlns="http://www.w3.org/2000/svg">
<path d="M25.2201 5.49378L17.8867 2.74711C17.1267 2.46711 15.8867 2.46711 15.1267 2.74711L7.7934 5.49378C6.38006 6.02711 5.2334 7.68044 5.2334 9.18711V19.9871C5.2334 21.0671 5.94007 22.4938 6.80673 23.1338L14.1401 28.6138C15.4334 29.5871 17.5534 29.5871 18.8467 28.6138L26.1801 23.1338C27.0467 22.4804 27.7534 21.0671 27.7534 19.9871V9.18711C27.7667 7.68044 26.6201 6.02711 25.2201 5.49378ZM20.0734 18.6271C19.8734 18.8271 19.6201 18.9204 19.3667 18.9204C19.1134 18.9204 18.8601 18.8271 18.6601 18.6271L16.5401 16.5071L14.3534 18.6938C14.1534 18.8938 13.9001 18.9871 13.6467 18.9871C13.3934 18.9871 13.1401 18.8938 12.9401 18.6938C12.5534 18.3071 12.5534 17.6671 12.9401 17.2804L15.1267 15.0938L12.9934 12.9604C12.6067 12.5738 12.6067 11.9338 12.9934 11.5471C13.3801 11.1604 14.0201 11.1604 14.4067 11.5471L16.5267 13.6671L18.5934 11.6004C18.9801 11.2138 19.6201 11.2138 20.0067 11.6004C20.3934 11.9871 20.3934 12.6271 20.0067 13.0138L17.9401 15.0804L20.0601 17.2004C20.4601 17.6004 20.4601 18.2271 20.0734 18.6271Z" fill="#DC3545"/>
</symbol>
<symbol id='warning' width="33" height="32" viewBox="0 0 33 32" fill="none" xmlns="http://www.w3.org/2000/svg">
<path d="M26.5133 7.79935L18.5933 3.22602C17.3 2.47935 15.7 2.47935 14.3933 3.22602L6.48664 7.79935C5.19331 8.54602 4.39331 9.93268 4.39331 11.4393V20.5593C4.39331 22.0527 5.19331 23.4393 6.48664 24.1993L14.4066 28.7727C15.7 29.5194 17.3 29.5194 18.6066 28.7727L26.5266 24.1993C27.82 23.4527 28.62 22.066 28.62 20.5593V11.4393C28.6066 9.93268 27.8066 8.55935 26.5133 7.79935ZM15.5 10.3327C15.5 9.78602 15.9533 9.33268 16.5 9.33268C17.0466 9.33268 17.5 9.78602 17.5 10.3327V17.3327C17.5 17.8793 17.0466 18.3327 16.5 18.3327C15.9533 18.3327 15.5 17.8793 15.5 17.3327V10.3327ZM17.7266 22.1727C17.66 22.3327 17.5666 22.4793 17.4466 22.6127C17.1933 22.866 16.86 22.9993 16.5 22.9993C16.3266 22.9993 16.1533 22.9594 15.9933 22.8927C15.82 22.826 15.6866 22.7327 15.5533 22.6127C15.4333 22.4793 15.34 22.3327 15.26 22.1727C15.1933 22.0127 15.1666 21.8393 15.1666 21.666C15.1666 21.3193 15.3 20.9727 15.5533 20.7193C15.6866 20.5993 15.82 20.506 15.9933 20.4394C16.4866 20.226 17.0733 20.346 17.4466 20.7193C17.5666 20.8527 17.66 20.986 17.7266 21.1593C17.7933 21.3193 17.8333 21.4927 17.8333 21.666C17.8333 21.8393 17.7933 22.0127 17.7266 22.1727Z" fill="#FFC107"/>
</symbol>
<symbol id='info' width="33" height="32" viewBox="0 0 33 32" fill="none" xmlns="http://www.w3.org/2000/svg">
<path d="M16.5 18.334C15.9533 18.334 15.5 17.8807 15.5 17.334V10.334C15.5 9.78732 15.9533 9.33398 16.5 9.33398C17.0467 9.33398 17.5 9.78732 17.5 10.334V17.334C17.5 17.8807 17.0467 18.334 16.5 18.334Z" fill="#17A2B8"/>
<path d="M16.5001 22.9996C16.1401 22.9996 15.8067 22.8663 15.5534 22.613C15.4334 22.4797 15.3401 22.333 15.2601 22.173C15.1934 22.013 15.1667 21.8396 15.1667 21.6663C15.1667 21.3196 15.3134 20.9729 15.5534 20.7196C16.0467 20.2263 16.9534 20.2263 17.4468 20.7196C17.6868 20.9729 17.8334 21.3196 17.8334 21.6663C17.8334 21.8396 17.7934 22.013 17.7267 22.173C17.6601 22.333 17.5668 22.4797 17.4468 22.613C17.1934 22.8663 16.8601 22.9996 16.5001 22.9996Z" fill="#17A2B8"/>
<path d="M16.5002 30.3335C15.6068 30.3335 14.7001 30.1068 13.9001 29.6401L5.98014 25.0668C4.38014 24.1334 3.38013 22.4134 3.38013 20.5601V11.4402C3.38013 9.58682 4.38014 7.86681 5.98014 6.93348L13.9001 2.36016C15.5001 1.42682 17.4868 1.42682 19.1002 2.36016L27.0202 6.93348C28.6202 7.86681 29.6202 9.58682 29.6202 11.4402V20.5601C29.6202 22.4134 28.6202 24.1334 27.0202 25.0668L19.1002 29.6401C18.3002 30.1068 17.3935 30.3335 16.5002 30.3335ZM16.5002 3.6668C15.9535 3.6668 15.3935 3.81347 14.9001 4.09347L6.98014 8.6668C5.99348 9.24013 5.38013 10.2935 5.38013 11.4402V20.5601C5.38013 21.6934 5.99348 22.7601 6.98014 23.3335L14.9001 27.9068C15.8868 28.4801 17.1135 28.4801 18.0868 27.9068L26.0068 23.3335C26.9935 22.7601 27.6069 21.7068 27.6069 20.5601V11.4402C27.6069 10.3068 26.9935 9.24013 26.0068 8.6668L18.0868 4.09347C17.6068 3.81347 17.0468 3.6668 16.5002 3.6668Z" fill="#17A2B8"/>
</symbol>

</svg>