<svg>
<symbol id='calender' width="16" height="17" viewBox="0 0 16 17" fill="none" xmlns="http://www.w3.org/2000/svg">
<path d="M5.33325 4.33398C5.05992 4.33398 4.83325 4.10732 4.83325 3.83398V1.83398C4.83325 1.56065 5.05992 1.33398 5.33325 1.33398C5.60659 1.33398 5.83325 1.56065 5.83325 1.83398V3.83398C5.83325 4.10732 5.60659 4.33398 5.33325 4.33398Z" fill="#181718"/>
<path d="M10.6667 4.33398C10.3934 4.33398 10.1667 4.10732 10.1667 3.83398V1.83398C10.1667 1.56065 10.3934 1.33398 10.6667 1.33398C10.9401 1.33398 11.1667 1.56065 11.1667 1.83398V3.83398C11.1667 4.10732 10.9401 4.33398 10.6667 4.33398Z" fill="#181718"/>
<path d="M5.66667 10.1675C5.58 10.1675 5.49333 10.1475 5.41333 10.1142C5.32667 10.0809 5.26 10.0342 5.19333 9.97419C5.07333 9.84752 5 9.68086 5 9.50086C5 9.41419 5.02 9.32752 5.05333 9.24752C5.08667 9.16752 5.13333 9.0942 5.19333 9.02753C5.26 8.96753 5.32667 8.92085 5.41333 8.88752C5.65333 8.78752 5.95333 8.84086 6.14 9.02753C6.26 9.1542 6.33333 9.32753 6.33333 9.50086C6.33333 9.54086 6.32667 9.58753 6.32 9.6342C6.31333 9.6742 6.3 9.7142 6.28 9.7542C6.26667 9.7942 6.24667 9.83419 6.22 9.87419C6.2 9.90752 6.16667 9.94085 6.14 9.97419C6.01333 10.0942 5.84 10.1675 5.66667 10.1675Z" fill="#181718"/>
<path d="M7.99992 10.1666C7.91325 10.1666 7.82658 10.1466 7.74658 10.1133C7.65992 10.0799 7.59325 10.0332 7.52659 9.97324C7.40659 9.84658 7.33325 9.67992 7.33325 9.49992C7.33325 9.41325 7.35325 9.32658 7.38659 9.24658C7.41992 9.16658 7.46659 9.09325 7.52659 9.02659C7.59325 8.96659 7.65992 8.91991 7.74658 8.88657C7.98658 8.77991 8.28658 8.83992 8.47325 9.02659C8.59325 9.15325 8.66659 9.32658 8.66659 9.49992C8.66659 9.53992 8.65992 9.58659 8.65325 9.63326C8.64659 9.67326 8.63325 9.71325 8.61325 9.75325C8.59992 9.79325 8.57992 9.83325 8.55325 9.87325C8.53325 9.90658 8.49992 9.93991 8.47325 9.97324C8.34658 10.0932 8.17325 10.1666 7.99992 10.1666Z" fill="#181718"/>
<path d="M10.3334 10.1666C10.2467 10.1666 10.1601 10.1466 10.0801 10.1133C9.99341 10.0799 9.92675 10.0332 9.86008 9.97324C9.83342 9.93991 9.80675 9.90658 9.78008 9.87325C9.75341 9.83325 9.73342 9.79325 9.72008 9.75325C9.70008 9.71325 9.68675 9.67326 9.68008 9.63326C9.67342 9.58659 9.66675 9.53992 9.66675 9.49992C9.66675 9.32658 9.74008 9.15325 9.86008 9.02659C9.92675 8.96659 9.99341 8.91991 10.0801 8.88657C10.3267 8.77991 10.6201 8.83992 10.8067 9.02659C10.9267 9.15325 11.0001 9.32658 11.0001 9.49992C11.0001 9.53992 10.9934 9.58659 10.9867 9.63326C10.9801 9.67326 10.9667 9.71325 10.9467 9.75325C10.9334 9.79325 10.9134 9.83325 10.8867 9.87325C10.8667 9.90658 10.8334 9.93991 10.8067 9.97324C10.6801 10.0932 10.5067 10.1666 10.3334 10.1666Z" fill="#181718"/>
<path d="M5.66667 12.5008C5.58 12.5008 5.49333 12.4808 5.41333 12.4475C5.33333 12.4141 5.26 12.3674 5.19333 12.3074C5.07333 12.1808 5 12.0074 5 11.8341C5 11.7474 5.02 11.6608 5.05333 11.5808C5.08667 11.4941 5.13333 11.4208 5.19333 11.3608C5.44 11.1141 5.89333 11.1141 6.14 11.3608C6.26 11.4874 6.33333 11.6608 6.33333 11.8341C6.33333 12.0074 6.26 12.1808 6.14 12.3074C6.01333 12.4274 5.84 12.5008 5.66667 12.5008Z" fill="#181718"/>
<path d="M7.99992 12.5008C7.82659 12.5008 7.65325 12.4274 7.52659 12.3074C7.40659 12.1808 7.33325 12.0074 7.33325 11.8341C7.33325 11.7474 7.35325 11.6608 7.38659 11.5808C7.41992 11.4941 7.46659 11.4208 7.52659 11.3608C7.77325 11.1141 8.22658 11.1141 8.47325 11.3608C8.53325 11.4208 8.57992 11.4941 8.61325 11.5808C8.64658 11.6608 8.66659 11.7474 8.66659 11.8341C8.66659 12.0074 8.59325 12.1808 8.47325 12.3074C8.34658 12.4274 8.17325 12.5008 7.99992 12.5008Z" fill="#181718"/>
<path d="M10.3334 12.4999C10.1601 12.4999 9.98675 12.4266 9.86008 12.3066C9.80008 12.2466 9.75342 12.1733 9.72008 12.0866C9.68675 12.0066 9.66675 11.9199 9.66675 11.8333C9.66675 11.7466 9.68675 11.6599 9.72008 11.5799C9.75342 11.4933 9.80008 11.4199 9.86008 11.3599C10.0134 11.2066 10.2467 11.1333 10.4601 11.1799C10.5067 11.1866 10.5467 11.1999 10.5867 11.2199C10.6267 11.2333 10.6667 11.2533 10.7067 11.28C10.7401 11.3 10.7734 11.3333 10.8067 11.3599C10.9267 11.4866 11.0001 11.6599 11.0001 11.8333C11.0001 12.0066 10.9267 12.1799 10.8067 12.3066C10.6801 12.4266 10.5067 12.4999 10.3334 12.4999Z" fill="#181718"/>
<path d="M13.6666 7.06055H2.33325C2.05992 7.06055 1.83325 6.83388 1.83325 6.56055C1.83325 6.28721 2.05992 6.06055 2.33325 6.06055H13.6666C13.9399 6.06055 14.1666 6.28721 14.1666 6.56055C14.1666 6.83388 13.9399 7.06055 13.6666 7.06055Z" fill="#181718"/>
<path d="M10.6667 15.6673H5.33333C2.9 15.6673 1.5 14.2673 1.5 11.834V6.16732C1.5 3.73398 2.9 2.33398 5.33333 2.33398H10.6667C13.1 2.33398 14.5 3.73398 14.5 6.16732V11.834C14.5 14.2673 13.1 15.6673 10.6667 15.6673ZM5.33333 3.33398C3.42667 3.33398 2.5 4.26065 2.5 6.16732V11.834C2.5 13.7407 3.42667 14.6673 5.33333 14.6673H10.6667C12.5733 14.6673 13.5 13.7407 13.5 11.834V6.16732C13.5 4.26065 12.5733 3.33398 10.6667 3.33398H5.33333Z" fill="#181718"/>
</symbol>
</svg>