<svg>
<symbol  id="tattoo"  viewBox="0 0 40 40"  xmlns="http://www.w3.org/2000/svg">
<path d="M34.2001 20.2999C33.1001 26.3999 27.8001 30.5999 21.9001 30.5999C21.1001 30.5999 20.4001 30.4999 19.6001 30.3999C20.9001 29.0999 21.9001 27.5999 22.6001 26.0999C22.6001 25.9999 22.7001 25.8999 22.7001 25.7999C23.0001 25.1999 23.2001 24.5999 23.4001 23.9999C23.5001 23.7999 23.5001 23.4999 23.6001 23.2999C24.4001 22.5999 25.2001 21.9999 26.1001 21.4999C28.6001 20.2999 31.4001 19.7999 34.2001 20.2999Z"  stroke-miterlimit="10" stroke-linecap="round" stroke-linejoin="round"/>
<path d="M19.6 30.3999C18.8 30.4999 18.1 30.5999 17.3 30.5999C11.3 30.5999 6.1 26.3999 5 20.2999C7.9 19.7999 10.7 20.2999 13 21.4999C13.9 21.9999 14.8 22.5999 15.5 23.2999C15.6 23.4999 15.6 23.7999 15.7 23.9999C15.9 24.5999 16.1 25.1999 16.3 25.7999C16.3 25.8999 16.4 25.9999 16.4 26.0999C17.3 27.5999 18.3 29.0999 19.6 30.3999Z"  stroke-miterlimit="10" stroke-linecap="round" stroke-linejoin="round"/>
<path d="M24.0002 19.7C24.0002 20.9 23.9002 22.1 23.6002 23.3C23.5002 23.5 23.5002 23.8 23.4002 24C23.2002 24.6 23.0002 25.2 22.7002 25.8C22.7002 25.9 22.6002 26 22.6002 26.1C21.9002 27.7 20.8002 29.1 19.6002 30.4C18.3002 29.1 17.3002 27.6 16.6002 26.1C16.6002 26 16.5002 25.9 16.5002 25.8C16.2002 25.2 16.0002 24.6 15.9002 24C15.8002 23.8 15.8002 23.5 15.7002 23.3C15.0002 20.5 15.2002 17.5 16.1002 14.8C16.8002 12.7 18.0002 10.7 19.7002 9C21.4002 10.7 22.6002 12.7 23.3002 14.8C23.8002 16.4 24.0002 18 24.0002 19.7Z"  stroke-miterlimit="10" stroke-linecap="round" stroke-linejoin="round"/>
<path d="M29.2003 13.3008C29.2003 16.4008 28.1003 19.3008 26.2003 21.5008C25.3003 22.0008 24.4003 22.6008 23.7003 23.3008C24.0003 22.1008 24.1003 20.9008 24.1003 19.7008C24.1003 18.0008 23.8003 16.4008 23.3003 14.8008C25.0003 13.8008 27.0003 13.3008 29.2003 13.3008Z"  stroke-miterlimit="10" stroke-linecap="round" stroke-linejoin="round"/>
<path d="M15.6001 23.3008C14.8001 22.6008 14.0001 22.0008 13.1001 21.5008C11.2001 19.3008 10.1001 16.4008 10.1001 13.3008C12.2001 13.3008 14.3001 13.8008 16.0001 14.8008C15.0001 17.5008 14.9001 20.5008 15.6001 23.3008Z"  stroke-miterlimit="10" stroke-linecap="round" stroke-linejoin="round"/>
</symbol>
<symbol  id="nail"  viewBox="0 0 40 40"  xmlns="http://www.w3.org/2000/svg">
<path d="M24.5002 20.2C24.5002 22.9 22.3002 25.1 19.6002 25.1C16.9002 25.1 14.7002 22.9 14.7002 20.2C14.7002 19.2 14.8002 17.3 15.2002 15.2C15.8002 11.4 17.1002 7 19.6002 7C22.1002 7 23.4002 11.3 24.0002 15.2C24.4002 17.3 24.5002 19.2 24.5002 20.2Z"  stroke-miterlimit="10" stroke-linecap="round" stroke-linejoin="round"/>
<path d="M24.1 15.1992C25.8 15.1992 27.1 16.5992 27.1 18.1992V33.7992H12V18.1992C12 16.4992 13.4 15.1992 15 15.1992"  stroke-miterlimit="10" stroke-linecap="round" stroke-linejoin="round"/>
<path d="M20.2002 9.80078C20.2002 9.80078 21.3002 11.2008 21.5002 12.7008"  stroke-miterlimit="10" stroke-linecap="round" stroke-linejoin="round"/>
</symbol>

<symbol  id="face"  viewBox="0 0 40 40"  xmlns="http://www.w3.org/2000/svg">
<path d="M27.5 31.4L25.7 30.9L26.2 32.7C24.4 34.3 22.3 35.3 20 35.3C17.8 35.3 15.7 34.3 13.8 32.7L14.3 30.9L12.5 31.4C9.2 27.8 7 22.2 7 17.9C7 15.3 7.80001 12.8 9.20001 10.7L12.4 11.6L11.5 8.2C13.8 6.2 16.8 5 20.1 5C23.4 5 26.4 6.2 28.7 8.2L27.8 11.6L31 10.7C32.4 12.8 33.2 15.2 33.2 17.9C33 22.2 30.9 27.7 27.5 31.4Z"  stroke-miterlimit="10" stroke-linecap="round" stroke-linejoin="round"/>
<path d="M14.5998 21.6992C16.4224 21.6992 17.8998 20.8038 17.8998 19.6992C17.8998 18.5946 16.4224 17.6992 14.5998 17.6992C12.7773 17.6992 11.2998 18.5946 11.2998 19.6992C11.2998 20.8038 12.7773 21.6992 14.5998 21.6992Z"  stroke-miterlimit="10" stroke-linecap="round" stroke-linejoin="round"/>
<path d="M25.4997 21.6992C27.3222 21.6992 28.7997 20.8038 28.7997 19.6992C28.7997 18.5946 27.3222 17.6992 25.4997 17.6992C23.6772 17.6992 22.1997 18.5946 22.1997 19.6992C22.1997 20.8038 23.6772 21.6992 25.4997 21.6992Z"  stroke-miterlimit="10" stroke-linecap="round" stroke-linejoin="round"/>
<path d="M20 29.6C21.6569 29.6 23 29.018 23 28.3C23 27.582 21.6569 27 20 27C18.3431 27 17 27.582 17 28.3C17 29.018 18.3431 29.6 20 29.6Z"  stroke-miterlimit="10" stroke-linecap="round" stroke-linejoin="round"/>
</symbol>
<symbol  id="hair"  viewBox="0 0 40 40"  xmlns="http://www.w3.org/2000/svg">
<path d="M17.2 15.1C17.2 15.1 18.3 22.5 25.1 23.5C31.9 24.5 31.1 30.1 31.1 30.1C31.1 30.1 40 17.8 28.8 9.89999C28.8 9.89999 26.8 4 20.9 4C15 4 12.1 9.89999 12.1 9.89999C12.1 9.89999 6 10.4 6 17C6 23.6 11.4 24.4 11.4 24.4C11.4 24.4 10.3 16.9 17.2 15.1Z"  stroke-miterlimit="10" stroke-linecap="round" stroke-linejoin="round"/>
<path d="M29.3999 26.4004C29.3999 26.4004 25.2999 35.9004 20.1999 35.9004C16.2428 35.9004 13.1626 30.3258 12.0498 28.0004"  stroke-miterlimit="10" stroke-linecap="round" stroke-linejoin="round"/>
</symbol>

<symbol  id="eyes"  viewBox="0 0 40 40"  xmlns="http://www.w3.org/2000/svg">
<path d="M17.2 15.1C17.2 15.1 18.3 22.5 25.1 23.5C31.9 24.5 31.1 30.1 31.1 30.1C31.1 30.1 40 17.8 28.8 9.89999C28.8 9.89999 26.8 4 20.9 4C15 4 12.1 9.89999 12.1 9.89999C12.1 9.89999 6 10.4 6 17C6 23.6 11.4 24.4 11.4 24.4C11.4 24.4 10.3 16.9 17.2 15.1Z"  stroke-miterlimit="10" stroke-linecap="round" stroke-linejoin="round"/>
<path d="M29.3999 26.4004C29.3999 26.4004 25.2999 35.9004 20.1999 35.9004C16.2428 35.9004 13.1626 30.3258 12.0498 28.0004"  stroke-miterlimit="10" stroke-linecap="round" stroke-linejoin="round"/>
</symbol>

</svg>