<svg>
<symbol  id="arrow-down10"  viewBox="0 0 10 10"  xmlns="http://www.w3.org/2000/svg">
<path d="M8.29995 3.72852L5.58328 6.44518C5.26245 6.76602 4.73745 6.76602 4.41662 6.44518L1.69995 3.72852"  stroke-width="1.5" stroke-miterlimit="10" stroke-linecap="round" stroke-linejoin="round"/>
</symbol>
<symbol id='branch' width="15" height="15" viewBox="0 0 15 15" fill='none' xmlns="http://www.w3.org/2000/svg">
<path d="M1.25 13.75H13.75" stroke="#292D32" stroke-width="1.5" stroke-miterlimit="10" stroke-linecap="round" stroke-linejoin="round"/>
<path d="M7.5 1.25C8.5 1.65 9.625 1.65 10.625 1.25V3.125C9.625 3.525 8.5 3.525 7.5 3.125V1.25Z" stroke="#292D32" stroke-width="1.5" stroke-miterlimit="10" stroke-linecap="round" stroke-linejoin="round"/>
<path d="M7.5 3.125V5" stroke="#292D32" stroke-width="1.5" stroke-miterlimit="10" stroke-linecap="round" stroke-linejoin="round"/>
<path d="M10.625 5H4.375C3.125 5 2.5 5.625 2.5 6.875V13.75H12.5V6.875C12.5 5.625 11.875 5 10.625 5Z" stroke="#292D32" stroke-width="1.5" stroke-miterlimit="10" stroke-linecap="round" stroke-linejoin="round"/>
<path d="M2.86249 7.5H12.1375" stroke="#292D32" stroke-width="1.5" stroke-miterlimit="10" stroke-linecap="round" stroke-linejoin="round"/>
<path d="M4.99374 7.5V13.75" stroke="#292D32" stroke-width="1.5" stroke-miterlimit="10" stroke-linejoin="round"/>
<path d="M7.49374 7.5V13.75" stroke="#292D32" stroke-width="1.5" stroke-miterlimit="10" stroke-linejoin="round"/>
<path d="M9.99374 7.5V13.75" stroke="#292D32" stroke-width="1.5" stroke-miterlimit="10" stroke-linejoin="round"/>
</symbol>
<symbol id="notification" width="24" height="24" viewBox="0 0 24 24" fill="none" xmlns="http://www.w3.org/2000/svg">
<path d="M12 10.5195C11.59 10.5195 11.25 10.1795 11.25 9.76945V6.43945C11.25 6.02945 11.59 5.68945 12 5.68945C12.41 5.68945 12.75 6.02945 12.75 6.43945V9.76945C12.75 10.1895 12.41 10.5195 12 10.5195Z" fill="#181718"/>
<path d="M12.02 20.3502C9.43999 20.3502 6.86999 19.9402 4.41999 19.1202C3.50999 18.8202 2.81999 18.1702 2.51999 17.3502C2.21999 16.5302 2.31999 15.5902 2.80999 14.7702L4.07999 12.6502C4.35999 12.1802 4.60999 11.3002 4.60999 10.7502V8.65023C4.60999 4.56023 7.92999 1.24023 12.02 1.24023C16.11 1.24023 19.43 4.56023 19.43 8.65023V10.7502C19.43 11.2902 19.68 12.1802 19.96 12.6502L21.23 14.7702C21.7 15.5502 21.78 16.4802 21.47 17.3302C21.16 18.1802 20.48 18.8302 19.62 19.1202C17.17 19.9502 14.6 20.3502 12.02 20.3502ZM12.02 2.75023C8.75999 2.75023 6.10999 5.40023 6.10999 8.66023V10.7602C6.10999 11.5702 5.78999 12.7402 5.36999 13.4302L4.09999 15.5602C3.83999 15.9902 3.77999 16.4502 3.92999 16.8502C4.07999 17.2502 4.41999 17.5502 4.89999 17.7102C9.49999 19.2402 14.56 19.2402 19.16 17.7102C19.59 17.5702 19.92 17.2502 20.07 16.8302C20.23 16.4102 20.18 15.9502 19.95 15.5602L18.68 13.4402C18.26 12.7502 17.94 11.5802 17.94 10.7702V8.67023C17.93 5.40023 15.28 2.75023 12.02 2.75023Z" fill="#181718"/>
<path d="M12 22.9003C10.93 22.9003 9.87998 22.4603 9.11998 21.7003C8.35998 20.9403 7.91998 19.8903 7.91998 18.8203H9.41998C9.41998 19.5003 9.69998 20.1603 10.18 20.6403C10.66 21.1203 11.32 21.4003 12 21.4003C13.42 21.4003 14.58 20.2403 14.58 18.8203H16.08C16.08 21.0703 14.25 22.9003 12 22.9003Z" fill="#181718"/>
</symbol>
<symbol id="arrow-down" width="16" height="16" viewBox="0 0 16 16" xmlns="http://www.w3.org/2000/svg">
<path d="M8.00001 11.2004C7.53335 11.2004 7.06668 11.0204 6.71335 10.6671L2.36668 6.32042C2.17335 6.12708 2.17335 5.80708 2.36668 5.61375C2.56001 5.42042 2.88001 5.42042 3.07335 5.61375L7.42001 9.96042C7.74001 10.2804 8.26001 10.2804 8.58001 9.96042L12.9267 5.61375C13.12 5.42042 13.44 5.42042 13.6333 5.61375C13.8267 5.80708 13.8267 6.12708 13.6333 6.32042L9.28668 10.6671C8.93335 11.0204 8.46668 11.2004 8.00001 11.2004Z"/>
</symbol>


<symbol id="category-icon" width="24" height="24" viewBox="0 0 24 24" fill="none" xmlns="http://www.w3.org/2000/svg">
<path d="M19 10.75H17C14.58 10.75 13.25 9.42 13.25 7V5C13.25 2.58 14.58 1.25 17 1.25H19C21.42 1.25 22.75 2.58 22.75 5V7C22.75 9.42 21.42 10.75 19 10.75ZM17 2.75C15.42 2.75 14.75 3.42 14.75 5V7C14.75 8.58 15.42 9.25 17 9.25H19C20.58 9.25 21.25 8.58 21.25 7V5C21.25 3.42 20.58 2.75 19 2.75H17Z" fill="#181718"/>
<path d="M7 22.75H5C2.58 22.75 1.25 21.42 1.25 19V17C1.25 14.58 2.58 13.25 5 13.25H7C9.42 13.25 10.75 14.58 10.75 17V19C10.75 21.42 9.42 22.75 7 22.75ZM5 14.75C3.42 14.75 2.75 15.42 2.75 17V19C2.75 20.58 3.42 21.25 5 21.25H7C8.58 21.25 9.25 20.58 9.25 19V17C9.25 15.42 8.58 14.75 7 14.75H5Z" fill="#181718"/>
<path d="M6 10.75C3.38 10.75 1.25 8.62 1.25 6C1.25 3.38 3.38 1.25 6 1.25C8.62 1.25 10.75 3.38 10.75 6C10.75 8.62 8.62 10.75 6 10.75ZM6 2.75C4.21 2.75 2.75 4.21 2.75 6C2.75 7.79 4.21 9.25 6 9.25C7.79 9.25 9.25 7.79 9.25 6C9.25 4.21 7.79 2.75 6 2.75Z" fill="#181718"/>
<path d="M18 22.75C15.38 22.75 13.25 20.62 13.25 18C13.25 15.38 15.38 13.25 18 13.25C20.62 13.25 22.75 15.38 22.75 18C22.75 20.62 20.62 22.75 18 22.75ZM18 14.75C16.21 14.75 14.75 16.21 14.75 18C14.75 19.79 16.21 21.25 18 21.25C19.79 21.25 21.25 19.79 21.25 18C21.25 16.21 19.79 14.75 18 14.75Z" fill="#181718"/>
</symbol>
<symbol id="setting" width="24" height="24" viewBox="0 0 24 24" xmlns="http://www.w3.org/2000/svg">
<path d="M12 15.75C9.93 15.75 8.25 14.07 8.25 12C8.25 9.93 9.93 8.25 12 8.25C14.07 8.25 15.75 9.93 15.75 12C15.75 14.07 14.07 15.75 12 15.75ZM12 9.75C10.76 9.75 9.75 10.76 9.75 12C9.75 13.24 10.76 14.25 12 14.25C13.24 14.25 14.25 13.24 14.25 12C14.25 10.76 13.24 9.75 12 9.75Z"/>
<path d="M15.21 22.1903C15 22.1903 14.79 22.1603 14.58 22.1103C13.96 21.9403 13.44 21.5503 13.11 21.0003L12.99 20.8003C12.4 19.7803 11.59 19.7803 11 20.8003L10.89 20.9903C10.56 21.5503 10.04 21.9503 9.42 22.1103C8.79 22.2803 8.14 22.1903 7.59 21.8603L5.87 20.8703C5.26 20.5203 4.82 19.9503 4.63 19.2603C4.45 18.5703 4.54 17.8603 4.89 17.2503C5.18 16.7403 5.26 16.2803 5.09 15.9903C4.92 15.7003 4.49 15.5303 3.9 15.5303C2.44 15.5303 1.25 14.3403 1.25 12.8803V11.1203C1.25 9.66029 2.44 8.47029 3.9 8.47029C4.49 8.47029 4.92 8.30029 5.09 8.01029C5.26 7.72029 5.19 7.26029 4.89 6.75029C4.54 6.14029 4.45 5.42029 4.63 4.74029C4.81 4.05029 5.25 3.48029 5.87 3.13029L7.6 2.14029C8.73 1.47029 10.22 1.86029 10.9 3.01029L11.02 3.21029C11.61 4.23029 12.42 4.23029 13.01 3.21029L13.12 3.02029C13.8 1.86029 15.29 1.47029 16.43 2.15029L18.15 3.14029C18.76 3.49029 19.2 4.06029 19.39 4.75029C19.57 5.44029 19.48 6.15029 19.13 6.76029C18.84 7.27029 18.76 7.73029 18.93 8.02029C19.1 8.31029 19.53 8.48029 20.12 8.48029C21.58 8.48029 22.77 9.67029 22.77 11.1303V12.8903C22.77 14.3503 21.58 15.5403 20.12 15.5403C19.53 15.5403 19.1 15.7103 18.93 16.0003C18.76 16.2903 18.83 16.7503 19.13 17.2603C19.48 17.8703 19.58 18.5903 19.39 19.2703C19.21 19.9603 18.77 20.5303 18.15 20.8803L16.42 21.8703C16.04 22.0803 15.63 22.1903 15.21 22.1903ZM12 18.4903C12.89 18.4903 13.72 19.0503 14.29 20.0403L14.4 20.2303C14.52 20.4403 14.72 20.5903 14.96 20.6503C15.2 20.7103 15.44 20.6803 15.64 20.5603L17.37 19.5603C17.63 19.4103 17.83 19.1603 17.91 18.8603C17.99 18.5603 17.95 18.2503 17.8 17.9903C17.23 17.0103 17.16 16.0003 17.6 15.2303C18.04 14.4603 18.95 14.0203 20.09 14.0203C20.73 14.0203 21.24 13.5103 21.24 12.8703V11.1103C21.24 10.4803 20.73 9.96029 20.09 9.96029C18.95 9.96029 18.04 9.52029 17.6 8.75029C17.16 7.98029 17.23 6.97029 17.8 5.99029C17.95 5.73029 17.99 5.42029 17.91 5.12029C17.83 4.82029 17.64 4.58029 17.38 4.42029L15.65 3.43029C15.22 3.17029 14.65 3.32029 14.39 3.76029L14.28 3.95029C13.71 4.94029 12.88 5.50029 11.99 5.50029C11.1 5.50029 10.27 4.94029 9.7 3.95029L9.59 3.75029C9.34 3.33029 8.78 3.18029 8.35 3.43029L6.62 4.43029C6.36 4.58029 6.16 4.83029 6.08 5.13029C6 5.43029 6.04 5.74029 6.19 6.00029C6.76 6.98029 6.83 7.99029 6.39 8.76029C5.95 9.53029 5.04 9.97029 3.9 9.97029C3.26 9.97029 2.75 10.4803 2.75 11.1203V12.8803C2.75 13.5103 3.26 14.0303 3.9 14.0303C5.04 14.0303 5.95 14.4703 6.39 15.2403C6.83 16.0103 6.76 17.0203 6.19 18.0003C6.04 18.2603 6 18.5703 6.08 18.8703C6.16 19.1703 6.35 19.4103 6.61 19.5703L8.34 20.5603C8.55 20.6903 8.8 20.7203 9.03 20.6603C9.27 20.6003 9.47 20.4403 9.6 20.2303L9.71 20.0403C10.28 19.0603 11.11 18.4903 12 18.4903Z"/>
</symbol>
<symbol id="logout" width="24" height="24" viewBox="0 0 24 24" xmlns="http://www.w3.org/2000/svg">
<path d="M17.44 15.3695C17.25 15.3695 17.06 15.2995 16.91 15.1495C16.62 14.8595 16.62 14.3795 16.91 14.0895L18.94 12.0595L16.91 10.0295C16.62 9.73945 16.62 9.25945 16.91 8.96945C17.2 8.67945 17.68 8.67945 17.97 8.96945L20.53 11.5295C20.82 11.8195 20.82 12.2995 20.53 12.5895L17.97 15.1495C17.82 15.2995 17.63 15.3695 17.44 15.3695Z" />
<path d="M19.93 12.8105H9.75999C9.34999 12.8105 9.00999 12.4705 9.00999 12.0605C9.00999 11.6505 9.34999 11.3105 9.75999 11.3105H19.93C20.34 11.3105 20.68 11.6505 20.68 12.0605C20.68 12.4705 20.34 12.8105 19.93 12.8105Z" />
<path d="M11.76 20.75C6.60999 20.75 3.00999 17.15 3.00999 12C3.00999 6.85 6.60999 3.25 11.76 3.25C12.17 3.25 12.51 3.59 12.51 4C12.51 4.41 12.17 4.75 11.76 4.75C7.48999 4.75 4.50999 7.73 4.50999 12C4.50999 16.27 7.48999 19.25 11.76 19.25C12.17 19.25 12.51 19.59 12.51 20C12.51 20.41 12.17 20.75 11.76 20.75Z" />
</symbol>
<symbol id="arrow-right" width="20" height="20" viewBox="0 0 20 20" xmlns="http://www.w3.org/2000/svg">
<path d="M7.42498 17.2253C7.26665 17.2253 7.10831 17.1669 6.98331 17.0419C6.74165 16.8003 6.74165 16.4003 6.98331 16.1586L12.4166 10.7253C12.8166 10.3253 12.8166 9.67526 12.4166 9.27526L6.98331 3.84193C6.74165 3.60026 6.74165 3.20026 6.98331 2.95859C7.22498 2.71693 7.62498 2.71693 7.86665 2.95859L13.3 8.39193C13.725 8.81693 13.9666 9.39193 13.9666 10.0003C13.9666 10.6086 13.7333 11.1836 13.3 11.6086L7.86665 17.0419C7.74165 17.1586 7.58331 17.2253 7.42498 17.2253Z"/>
</symbol>
<symbol id="close" width="24" height="24" viewBox="0 0 24 24"  xmlns="http://www.w3.org/2000/svg">
<path opacity="0.3" fill-rule="evenodd" clip-rule="evenodd" d="M5.29871 5.29851C5.69693 4.90044 6.3425 4.90051 6.74064 5.29866L12.0001 10.5583L17.2555 5.30382C17.6536 4.90571 18.2992 4.90571 18.6974 5.30382C19.0956 5.70193 19.0956 6.34739 18.6974 6.7455L13.4419 12.0001L18.7014 17.2598C19.0996 17.658 19.0995 18.3034 18.7013 18.7015C18.3031 19.0996 17.6575 19.0995 17.2594 18.7013L11.9999 13.4418L6.74656 18.6942C6.34838 19.0923 5.7028 19.0923 5.30462 18.6942C4.90645 18.2961 4.90645 17.6506 5.30462 17.2525L10.5581 11.9999L5.29856 6.74018C4.90042 6.34203 4.90049 5.69657 5.29871 5.29851Z" />
</symbol>
<symbol id="close12" width="12" height="12" viewBox="0 0 12 12" fill="none" xmlns="http://www.w3.org/2000/svg">
<path d="M11.8423 7.14362L7.59969 11.3863C7.45474 11.5312 7.21432 11.5312 7.06936 11.3863C6.92441 11.2413 6.92441 11.0009 7.06936 10.8559L11.312 6.61329C11.457 6.46833 11.6974 6.46833 11.8423 6.61329C11.9873 6.75824 11.9873 6.99866 11.8423 7.14362Z" fill="#181718" fill-opacity="0.8"/>
<path d="M11.8423 11.3867C11.6974 11.5317 11.457 11.5317 11.312 11.3867L7.06936 7.14407C6.92441 6.99911 6.92441 6.7587 7.06936 6.61374C7.21432 6.46878 7.45474 6.46878 7.59969 6.61374L11.8423 10.8564C11.9873 11.0013 11.9873 11.2418 11.8423 11.3867Z" fill="#181718" fill-opacity="0.8"/>
</symbol>

<symbol id="search" width="20" height="20" viewBox="0 0 20 20" xmlns="http://www.w3.org/2000/svg">
<path d="M9.16666 17.291C4.68332 17.291 1.04166 13.6493 1.04166 9.16602C1.04166 4.68268 4.68332 1.04102 9.16666 1.04102C13.65 1.04102 17.2917 4.68268 17.2917 9.16602C17.2917 13.6493 13.65 17.291 9.16666 17.291ZM9.16666 2.29102C5.37499 2.29102 2.29166 5.37435 2.29166 9.16602C2.29166 12.9577 5.37499 16.041 9.16666 16.041C12.9583 16.041 16.0417 12.9577 16.0417 9.16602C16.0417 5.37435 12.9583 2.29102 9.16666 2.29102Z"/>
<path d="M16.8 18.9917C16.7333 18.9917 16.6667 18.9833 16.6083 18.975C16.2167 18.925 15.5083 18.6583 15.1083 17.4667C14.9 16.8417 14.975 16.2167 15.3167 15.7417C15.6583 15.2667 16.2333 15 16.8917 15C17.7417 15 18.4083 15.325 18.7083 15.9C19.0083 16.475 18.925 17.2083 18.45 17.9167C17.8583 18.8083 17.2167 18.9917 16.8 18.9917ZM16.3 17.075C16.4417 17.5083 16.6417 17.725 16.775 17.7417C16.9083 17.7583 17.1583 17.6 17.4167 17.225C17.6583 16.8667 17.675 16.6083 17.6167 16.4917C17.5583 16.375 17.325 16.25 16.8917 16.25C16.6333 16.25 16.4417 16.3333 16.3333 16.475C16.2333 16.6167 16.2167 16.8333 16.3 17.075Z"/>
</symbol>
<symbol id="scissor" width="40" height="40" viewBox="0 0 40 40" fill="none" xmlns="http://www.w3.org/2000/svg">
<path d="M15.8 20.6C15.8 20.6 7.4 14.2 13.2 5L23 31.4" fill="url(#paint0_linear_2108_7182)"/>
<path d="M15.8 20.6C15.8 20.6 7.4 14.2 13.2 5L23 31.4" stroke="#2C001B" stroke-width="1.5" stroke-miterlimit="10" stroke-linecap="round" stroke-linejoin="round"/>
<path d="M27.6 35.4C30.1958 35.4 32.3 33.2958 32.3 30.7C32.3 28.1043 30.1958 26 27.6 26C25.0043 26 22.9 28.1043 22.9 30.7C22.9 33.2958 25.0043 35.4 27.6 35.4Z" stroke="#2C001B" stroke-width="1.5" stroke-miterlimit="10" stroke-linecap="round" stroke-linejoin="round"/>
<path d="M24.6 20.6C24.6 20.6 33 14.2 27.2 5L17.4 31.4" fill="url(#paint1_linear_2108_7182)"/>
<path d="M24.6 20.6C24.6 20.6 33 14.2 27.2 5L17.4 31.4" stroke="#2C001B" stroke-width="1.5" stroke-miterlimit="10" stroke-linecap="round" stroke-linejoin="round"/>
<path d="M12.7 35.4C15.2957 35.4 17.4 33.2958 17.4 30.7C17.4 28.1043 15.2957 26 12.7 26C10.1043 26 8 28.1043 8 30.7C8 33.2958 10.1043 35.4 12.7 35.4Z" stroke="#2C001B" stroke-width="1.5" stroke-miterlimit="10" stroke-linecap="round" stroke-linejoin="round"/>
<defs>
<linearGradient id="paint0_linear_2108_7182" x1="18.5001" y1="23" x2="12.5001" y2="6.5" gradientUnits="userSpaceOnUse">
<stop stop-color="white" stop-opacity="0"/>
<stop offset="0.506603" stop-color="#E24084"/>
</linearGradient>
<linearGradient id="paint1_linear_2108_7182" x1="21.5" y1="23.5" x2="28" y2="7.5" gradientUnits="userSpaceOnUse">
<stop stop-color="white" stop-opacity="0"/>
<stop offset="0.467178" stop-color="#E24084"/>
</linearGradient>
</defs>
</symbol>
<symbol id="delete" width="20" height="20" viewBox="0 0 20 20" fill="none" xmlns="http://www.w3.org/2000/svg">
<g opacity="0.8">
<path d="M17.5001 5.60742C17.4834 5.60742 17.4584 5.60742 17.4334 5.60742C13.0251 5.16575 8.62505 4.99909 4.26672 5.44075L2.56672 5.60742C2.21672 5.64075 1.90839 5.39075 1.87505 5.04075C1.84172 4.69075 2.09172 4.39075 2.43339 4.35742L4.13339 4.19075C8.56672 3.74075 13.0584 3.91575 17.5584 4.35742C17.9001 4.39075 18.1501 4.69909 18.1167 5.04075C18.0917 5.36575 17.8167 5.60742 17.5001 5.60742Z" fill="#DC3545"/>
<path d="M7.08338 4.76602C7.05005 4.76602 7.01672 4.76602 6.97505 4.75768C6.64172 4.69935 6.40838 4.37435 6.46672 4.04102L6.65005 2.94935C6.78338 2.14935 6.96671 1.04102 8.90838 1.04102H11.0917C13.0417 1.04102 13.225 2.19102 13.35 2.95768L13.5334 4.04102C13.5917 4.38268 13.3584 4.70768 13.025 4.75768C12.6834 4.81602 12.3584 4.58268 12.3084 4.24935L12.125 3.16602C12.0084 2.44102 11.9834 2.29935 11.1 2.29935H8.91672C8.03338 2.29935 8.01672 2.41602 7.89172 3.15768L7.70005 4.24102C7.65005 4.54935 7.38338 4.76602 7.08338 4.76602Z" fill="#DC3545"/>
<path d="M12.675 18.9577H7.325C4.41666 18.9577 4.3 17.3493 4.20833 16.0493L3.66666 7.65766C3.64166 7.316 3.90833 7.016 4.25 6.991C4.6 6.97433 4.89166 7.23266 4.91666 7.57433L5.45833 15.966C5.55 17.2327 5.58333 17.7077 7.325 17.7077H12.675C14.425 17.7077 14.4583 17.2327 14.5417 15.966L15.0833 7.57433C15.1083 7.23266 15.4083 6.97433 15.75 6.991C16.0917 7.016 16.3583 7.30766 16.3333 7.65766L15.7917 16.0493C15.7 17.3493 15.5833 18.9577 12.675 18.9577Z" fill="#DC3545"/>
<path d="M11.3833 14.375H8.60828C8.26661 14.375 7.98328 14.0917 7.98328 13.75C7.98328 13.4083 8.26661 13.125 8.60828 13.125H11.3833C11.7249 13.125 12.0083 13.4083 12.0083 13.75C12.0083 14.0917 11.7249 14.375 11.3833 14.375Z" fill="#DC3545"/>
<path d="M12.0833 11.041H7.91663C7.57496 11.041 7.29163 10.7577 7.29163 10.416C7.29163 10.0743 7.57496 9.79102 7.91663 9.79102H12.0833C12.425 9.79102 12.7083 10.0743 12.7083 10.416C12.7083 10.7577 12.425 11.041 12.0833 11.041Z" fill="#DC3545"/>
</g>
</symbol>
<symbol id="delete24" width="24" height="24" viewBox="0 0 24 24" fill="none" xmlns="http://www.w3.org/2000/svg">
<path d="M21 6.73046C20.98 6.73046 20.95 6.73046 20.92 6.73046C15.63 6.20046 10.35 6.00046 5.11998 6.53046L3.07998 6.73046C2.65998 6.77046 2.28998 6.47046 2.24998 6.05046C2.20998 5.63046 2.50998 5.27046 2.91998 5.23046L4.95998 5.03046C10.28 4.49046 15.67 4.70046 21.07 5.23046C21.48 5.27046 21.78 5.64046 21.74 6.05046C21.71 6.44046 21.38 6.73046 21 6.73046Z" fill="#DC3545"/>
<path d="M8.50001 5.72C8.46001 5.72 8.42001 5.72 8.37001 5.71C7.97001 5.64 7.69001 5.25 7.76001 4.85L7.98001 3.54C8.14001 2.58 8.36001 1.25 10.69 1.25H13.31C15.65 1.25 15.87 2.63 16.02 3.55L16.24 4.85C16.31 5.26 16.03 5.65 15.63 5.71C15.22 5.78 14.83 5.5 14.77 5.1L14.55 3.8C14.41 2.93 14.38 2.76 13.32 2.76H10.7C9.64001 2.76 9.62001 2.9 9.47001 3.79L9.24001 5.09C9.18001 5.46 8.86001 5.72 8.50001 5.72Z" fill="#DC3545"/>
<path d="M15.21 22.7496H8.79002C5.30002 22.7496 5.16002 20.8196 5.05002 19.2596L4.40002 9.18959C4.37002 8.77959 4.69002 8.41959 5.10002 8.38959C5.52002 8.36959 5.87002 8.67959 5.90002 9.08959L6.55002 19.1596C6.66002 20.6796 6.70002 21.2496 8.79002 21.2496H15.21C17.31 21.2496 17.35 20.6796 17.45 19.1596L18.1 9.08959C18.13 8.67959 18.49 8.36959 18.9 8.38959C19.31 8.41959 19.63 8.76959 19.6 9.18959L18.95 19.2596C18.84 20.8196 18.7 22.7496 15.21 22.7496Z" fill="#DC3545"/>
<path d="M13.66 17.25H10.33C9.92002 17.25 9.58002 16.91 9.58002 16.5C9.58002 16.09 9.92002 15.75 10.33 15.75H13.66C14.07 15.75 14.41 16.09 14.41 16.5C14.41 16.91 14.07 17.25 13.66 17.25Z" fill="#DC3545"/>
<path d="M14.5 13.25H9.5C9.09 13.25 8.75 12.91 8.75 12.5C8.75 12.09 9.09 11.75 9.5 11.75H14.5C14.91 11.75 15.25 12.09 15.25 12.5C15.25 12.91 14.91 13.25 14.5 13.25Z" fill="#DC3545"/>
</symbol>
<symbol id="delete16" width="16" height="16" viewBox="0 0 16 16" fill="none" xmlns="http://www.w3.org/2000/svg">
<g opacity="0.8">
<path d="M13.9999 4.48633C13.9866 4.48633 13.9666 4.48633 13.9466 4.48633C10.4199 4.13299 6.89994 3.99966 3.41328 4.35299L2.05328 4.48633C1.77328 4.51299 1.52661 4.31299 1.49994 4.03299C1.47328 3.75299 1.67328 3.51299 1.94661 3.48633L3.30661 3.35299C6.85328 2.99299 10.4466 3.13299 14.0466 3.48633C14.3199 3.51299 14.5199 3.75966 14.4933 4.03299C14.4733 4.29299 14.2533 4.48633 13.9999 4.48633Z" fill="#DC3545"/>
<path d="M5.66651 3.81398C5.63984 3.81398 5.61318 3.81398 5.57984 3.80732C5.31318 3.76065 5.12651 3.50065 5.17318 3.23398L5.31984 2.36065C5.42651 1.72065 5.57318 0.833984 7.12651 0.833984H8.87318C10.4332 0.833984 10.5798 1.75398 10.6798 2.36732L10.8265 3.23398C10.8732 3.50732 10.6865 3.76732 10.4198 3.80732C10.1465 3.85398 9.88651 3.66732 9.84651 3.40065L9.69984 2.53398C9.60651 1.95398 9.58651 1.84065 8.87984 1.84065H7.13318C6.42651 1.84065 6.41318 1.93398 6.31318 2.52732L6.15984 3.39398C6.11984 3.64065 5.90651 3.81398 5.66651 3.81398Z" fill="#DC3545"/>
<path d="M10.1401 15.1657H5.8601C3.53343 15.1657 3.4401 13.8791 3.36676 12.8391L2.93343 6.12574C2.91343 5.85241 3.12676 5.61241 3.4001 5.59241C3.6801 5.57907 3.91343 5.78574 3.93343 6.05907L4.36676 12.7724C4.4401 13.7857 4.46676 14.1657 5.8601 14.1657H10.1401C11.5401 14.1657 11.5668 13.7857 11.6334 12.7724L12.0668 6.05907C12.0868 5.78574 12.3268 5.57907 12.6001 5.59241C12.8734 5.61241 13.0868 5.84574 13.0668 6.12574L12.6334 12.8391C12.5601 13.8791 12.4668 15.1657 10.1401 15.1657Z" fill="#DC3545"/>
<path d="M9.10672 11.5H6.88672C6.61339 11.5 6.38672 11.2733 6.38672 11C6.38672 10.7267 6.61339 10.5 6.88672 10.5H9.10672C9.38005 10.5 9.60672 10.7267 9.60672 11C9.60672 11.2733 9.38005 11.5 9.10672 11.5Z" fill="#DC3545"/>
<path d="M9.66683 8.83398H6.3335C6.06016 8.83398 5.8335 8.60732 5.8335 8.33398C5.8335 8.06065 6.06016 7.83398 6.3335 7.83398H9.66683C9.94016 7.83398 10.1668 8.06065 10.1668 8.33398C10.1668 8.60732 9.94016 8.83398 9.66683 8.83398Z" fill="#DC3545"/>
</g>
</symbol>
<symbol id="edit16"  width="16" height="16" viewBox="0 0 16 16" fill="none" xmlns="http://www.w3.org/2000/svg">
<path d="M10.0002 15.1673H6.00016C2.38016 15.1673 0.833496 13.6207 0.833496 10.0007V6.00065C0.833496 2.38065 2.38016 0.833984 6.00016 0.833984H7.3335C7.60683 0.833984 7.8335 1.06065 7.8335 1.33398C7.8335 1.60732 7.60683 1.83398 7.3335 1.83398H6.00016C2.92683 1.83398 1.8335 2.92732 1.8335 6.00065V10.0007C1.8335 13.074 2.92683 14.1673 6.00016 14.1673H10.0002C13.0735 14.1673 14.1668 13.074 14.1668 10.0007V8.66732C14.1668 8.39398 14.3935 8.16732 14.6668 8.16732C14.9402 8.16732 15.1668 8.39398 15.1668 8.66732V10.0007C15.1668 13.6207 13.6202 15.1673 10.0002 15.1673Z" fill="#FFC107"/>
<path d="M5.66688 11.7924C5.26022 11.7924 4.88688 11.6457 4.61355 11.3791C4.28688 11.0524 4.14688 10.5791 4.22022 10.0791L4.50688 8.0724C4.56022 7.68573 4.81355 7.18573 5.08688 6.9124L10.3402 1.65906C11.6669 0.332396 13.0135 0.332396 14.3402 1.65906C15.0669 2.38573 15.3935 3.12573 15.3269 3.86573C15.2669 4.46573 14.9469 5.0524 14.3402 5.6524L9.08688 10.9057C8.81355 11.1791 8.31355 11.4324 7.92688 11.4857L5.92022 11.7724C5.83355 11.7924 5.74688 11.7924 5.66688 11.7924ZM11.0469 2.36573L5.79355 7.61906C5.66688 7.74573 5.52022 8.03906 5.49355 8.2124L5.20688 10.2191C5.18022 10.4124 5.22022 10.5724 5.32022 10.6724C5.42022 10.7724 5.58022 10.8124 5.77355 10.7857L7.78022 10.4991C7.95355 10.4724 8.25355 10.3257 8.37355 10.1991L13.6269 4.94573C14.0602 4.5124 14.2869 4.12573 14.3202 3.76573C14.3602 3.3324 14.1335 2.8724 13.6269 2.35906C12.5602 1.2924 11.8269 1.5924 11.0469 2.36573Z" fill="#FFC107"/>
<path d="M13.2335 6.55416C13.1869 6.55416 13.1402 6.5475 13.1002 6.53417C11.3469 6.04083 9.95353 4.6475 9.4602 2.89417C9.38687 2.6275 9.5402 2.35416 9.80687 2.27416C10.0735 2.20083 10.3469 2.35416 10.4202 2.62083C10.8202 4.04083 11.9469 5.1675 13.3669 5.5675C13.6335 5.64083 13.7869 5.92083 13.7135 6.1875C13.6535 6.41417 13.4535 6.55416 13.2335 6.55416Z" fill="#FFC107"/>
</symbol>

<symbol id="edit" width="20" height="20" viewBox="0 0 20 20"  xmlns="http://www.w3.org/2000/svg">
<g opacity="0.8">
<path d="M12.5 18.9577H7.49996C2.97496 18.9577 1.04163 17.0243 1.04163 12.4993V7.49935C1.04163 2.97435 2.97496 1.04102 7.49996 1.04102H9.16663C9.50829 1.04102 9.79163 1.32435 9.79163 1.66602C9.79163 2.00768 9.50829 2.29102 9.16663 2.29102H7.49996C3.65829 2.29102 2.29163 3.65768 2.29163 7.49935V12.4993C2.29163 16.341 3.65829 17.7077 7.49996 17.7077H12.5C16.3416 17.7077 17.7083 16.341 17.7083 12.4993V10.8327C17.7083 10.491 17.9916 10.2077 18.3333 10.2077C18.675 10.2077 18.9583 10.491 18.9583 10.8327V12.4993C18.9583 17.0243 17.025 18.9577 12.5 18.9577Z" fill="#FFC107"/>
<path d="M7.08336 14.7424C6.57503 14.7424 6.10836 14.5591 5.76669 14.2258C5.35836 13.8174 5.18336 13.2258 5.27503 12.6008L5.63336 10.0924C5.70003 9.60911 6.01669 8.98411 6.35836 8.64245L12.925 2.07578C14.5834 0.417448 16.2667 0.417448 17.925 2.07578C18.8334 2.98411 19.2417 3.90911 19.1584 4.83411C19.0834 5.58411 18.6834 6.31745 17.925 7.06745L11.3584 13.6341C11.0167 13.9758 10.3917 14.2924 9.90836 14.3591L7.40003 14.7174C7.29169 14.7424 7.18336 14.7424 7.08336 14.7424ZM13.8084 2.95911L7.24169 9.52578C7.08336 9.68411 6.90003 10.0508 6.86669 10.2674L6.50836 12.7758C6.47503 13.0174 6.52503 13.2174 6.65003 13.3424C6.77503 13.4674 6.97503 13.5174 7.21669 13.4841L9.72503 13.1258C9.94169 13.0924 10.3167 12.9091 10.4667 12.7508L17.0334 6.18411C17.575 5.64245 17.8584 5.15911 17.9 4.70911C17.95 4.16745 17.6667 3.59245 17.0334 2.95078C15.7 1.61745 14.7834 1.99245 13.8084 2.95911Z" fill="#FFC107"/>
<path d="M16.5417 8.19124C16.4833 8.19124 16.425 8.18291 16.375 8.16624C14.1833 7.54957 12.4417 5.80791 11.825 3.61624C11.7333 3.28291 11.925 2.94124 12.2583 2.84124C12.5917 2.74957 12.9333 2.94124 13.025 3.27457C13.525 5.04957 14.9333 6.45791 16.7083 6.95791C17.0417 7.04957 17.2333 7.39957 17.1417 7.73291C17.0667 8.01624 16.8167 8.19124 16.5417 8.19124Z" fill="#FFC107"/>
</g>
</symbol>
<symbol id="arrow-down-number-input" width="12" height="12" viewBox="0 0 12 12" xmlns="http://www.w3.org/2000/svg">
<path d="M8.96012 4.08984H5.84512H3.04012C2.56012 4.08984 2.32012 4.66984 2.66012 5.00984L5.25012 7.59984C5.66512 8.01484 6.34012 8.01484 6.75512 7.59984L7.74012 6.61484L9.34512 5.00984C9.68012 4.66984 9.44012 4.08984 8.96012 4.08984Z"/>
</symbol>
<symbol id="arrow-down-select-box" width="16" height="16" viewBox="0 0 16 16" fill="none" xmlns="http://www.w3.org/2000/svg">
<path d="M8.00001 11.2004C7.53335 11.2004 7.06668 11.0204 6.71335 10.6671L2.36668 6.32042C2.17335 6.12708 2.17335 5.80708 2.36668 5.61375C2.56001 5.42042 2.88001 5.42042 3.07335 5.61375L7.42001 9.96042C7.74001 10.2804 8.26001 10.2804 8.58001 9.96042L12.9267 5.61375C13.12 5.42042 13.44 5.42042 13.6333 5.61375C13.8267 5.80708 13.8267 6.12708 13.6333 6.32042L9.28668 10.6671C8.93335 11.0204 8.46668 11.2004 8.00001 11.2004Z" fill="#181718"/>
</symbol>
<symbol id="arrow-left" width="18" height="18" viewBox="0 0 18 18" xmlns="http://www.w3.org/2000/svg">
<g opacity="0.5">
<path d="M12.0227 3.35225C12.2224 3.55195 12.2406 3.86445 12.0772 4.08466L12.0227 4.14775L7.17075 9L12.0227 13.8523C12.2224 14.052 12.2406 14.3645 12.0772 14.5847L12.0227 14.6477C11.823 14.8474 11.5105 14.8656 11.2903 14.7022L11.2273 14.6477L5.97725 9.39775C5.77755 9.19805 5.7594 8.88555 5.92279 8.66534L5.97725 8.60225L11.2273 3.35225C11.4469 3.13258 11.8031 3.13258 12.0227 3.35225Z" />
</g>
</symbol>

<symbol id="filter" width="24" height="24" viewBox="0 0 24 24" fill="none" xmlns="http://www.w3.org/2000/svg">
<path d="M10.94 22.6496C10.46 22.6496 9.99002 22.5296 9.55002 22.2896C8.67002 21.7996 8.14002 20.9096 8.14002 19.9096V14.6096C8.14002 14.1096 7.81002 13.3596 7.50002 12.9796L3.76002 9.01961C3.13002 8.38961 2.65002 7.30961 2.65002 6.49961V4.19961C2.65002 2.59961 3.86002 1.34961 5.40002 1.34961H18.6C20.12 1.34961 21.35 2.57961 21.35 4.09961V6.29961C21.35 7.34961 20.72 8.53961 20.13 9.12961L15.8 12.9596C15.38 13.3096 15.05 14.0796 15.05 14.6996V18.9996C15.05 19.8896 14.49 20.9196 13.79 21.3396L12.41 22.2296C11.96 22.5096 11.45 22.6496 10.94 22.6496ZM5.40002 2.84961C4.70002 2.84961 4.15002 3.43961 4.15002 4.19961V6.49961C4.15002 6.86961 4.45002 7.58961 4.83002 7.96961L8.64002 11.9796C9.15002 12.6096 9.65002 13.6596 9.65002 14.5996V19.8996C9.65002 20.5496 10.1 20.8696 10.29 20.9696C10.71 21.1996 11.22 21.1996 11.61 20.9596L13 20.0696C13.28 19.8996 13.56 19.3596 13.56 18.9996V14.6996C13.56 13.6296 14.08 12.4496 14.83 11.8196L19.11 8.02961C19.45 7.68961 19.86 6.87961 19.86 6.28961V4.09961C19.86 3.40961 19.3 2.84961 18.61 2.84961H5.40002Z" fill="#EB1086"/>
<path d="M5.99998 10.7493C5.85998 10.7493 5.72998 10.7093 5.59998 10.6393C5.24998 10.4193 5.13998 9.94929 5.35998 9.59929L10.29 1.69929C10.51 1.34929 10.97 1.23929 11.32 1.45929C11.67 1.67929 11.78 2.13929 11.56 2.48929L6.62998 10.3893C6.48998 10.6193 6.24998 10.7493 5.99998 10.7493Z" fill="#EB1086"/>
</symbol>

<symbol id="upload-img" width="24" height="24" viewBox="0 0 24 24" fill="none" xmlns="http://www.w3.org/2000/svg">
<path d="M9 10.75C7.48 10.75 6.25 9.52 6.25 8C6.25 6.48 7.48 5.25 9 5.25C10.52 5.25 11.75 6.48 11.75 8C11.75 9.52 10.52 10.75 9 10.75ZM9 6.75C8.31 6.75 7.75 7.31 7.75 8C7.75 8.69 8.31 9.25 9 9.25C9.69 9.25 10.25 8.69 10.25 8C10.25 7.31 9.69 6.75 9 6.75Z" fill="#181718"/>
<path d="M15 22.75H9C3.57 22.75 1.25 20.43 1.25 15V9C1.25 3.57 3.57 1.25 9 1.25H13C13.41 1.25 13.75 1.59 13.75 2C13.75 2.41 13.41 2.75 13 2.75H9C4.39 2.75 2.75 4.39 2.75 9V15C2.75 19.61 4.39 21.25 9 21.25H15C19.61 21.25 21.25 19.61 21.25 15V10C21.25 9.59 21.59 9.25 22 9.25C22.41 9.25 22.75 9.59 22.75 10V15C22.75 20.43 20.43 22.75 15 22.75Z" fill="#181718"/>
<path d="M18 8.75C17.9 8.75 17.81 8.73 17.71 8.69C17.43 8.58 17.25 8.3 17.25 8V2C17.25 1.59 17.59 1.25 18 1.25C18.41 1.25 18.75 1.59 18.75 2V6.19L19.47 5.47C19.76 5.18 20.24 5.18 20.53 5.47C20.82 5.76 20.82 6.24 20.53 6.53L18.53 8.53C18.39 8.67 18.2 8.75 18 8.75Z" fill="#181718"/>
<path d="M18 8.74945C17.81 8.74945 17.62 8.67945 17.47 8.52945L15.47 6.52945C15.18 6.23945 15.18 5.75945 15.47 5.46945C15.76 5.17945 16.24 5.17945 16.53 5.46945L18.53 7.46945C18.82 7.75945 18.82 8.23945 18.53 8.52945C18.38 8.67945 18.19 8.74945 18 8.74945Z" fill="#181718"/>
<path d="M2.67002 19.7005C2.43002 19.7005 2.19002 19.5805 2.05002 19.3705C1.82002 19.0305 1.91002 18.5605 2.26002 18.3305L7.19002 15.0205C8.27002 14.2905 9.76002 14.3805 10.74 15.2105L11.07 15.5005C11.57 15.9305 12.42 15.9305 12.91 15.5005L17.07 11.9305C18.13 11.0205 19.8 11.0205 20.87 11.9305L22.5 13.3305C22.81 13.6005 22.85 14.0705 22.58 14.3905C22.31 14.7005 21.84 14.7405 21.52 14.4705L19.89 13.0705C19.39 12.6405 18.54 12.6405 18.04 13.0705L13.88 16.6405C12.82 17.5505 11.15 17.5505 10.08 16.6405L9.75002 16.3505C9.29002 15.9605 8.53002 15.9205 8.02002 16.2705L3.09002 19.5805C2.96002 19.6605 2.81002 19.7005 2.67002 19.7005Z" fill="#181718"/>
</symbol>
<symbol id="export" width="16" height="16" viewBox="0 0 16 16" fill="none" xmlns="http://www.w3.org/2000/svg">
<path d="M10.1733 14.8322H5.82665C2.55332 14.8322 1.15332 13.4322 1.15332 10.1589V10.0722C1.15332 7.11221 2.31999 5.68554 4.93332 5.43888C5.19999 5.41888 5.45332 5.61888 5.47999 5.89221C5.50665 6.16554 5.30665 6.41221 5.02665 6.43888C2.93332 6.63221 2.15332 7.61888 2.15332 10.0789V10.1655C2.15332 12.8789 3.11332 13.8389 5.82665 13.8389H10.1733C12.8867 13.8389 13.8467 12.8789 13.8467 10.1655V10.0789C13.8467 7.60554 13.0533 6.61888 10.92 6.43888C10.6467 6.41221 10.44 6.17221 10.4667 5.89888C10.4933 5.62554 10.7267 5.41888 11.0067 5.44554C13.66 5.67221 14.8467 7.10554 14.8467 10.0855V10.1722C14.8467 13.4322 13.4467 14.8322 10.1733 14.8322Z" fill="#EB1086"/>
<path d="M8 10.5007C7.72667 10.5007 7.5 10.2741 7.5 10.0007V2.41406C7.5 2.14073 7.72667 1.91406 8 1.91406C8.27333 1.91406 8.5 2.14073 8.5 2.41406V10.0007C8.5 10.2741 8.27333 10.5007 8 10.5007Z" fill="#EB1086"/>
<path d="M10.2333 4.39964C10.1066 4.39964 9.97998 4.35297 9.87998 4.25297L7.99998 2.37297L6.11998 4.25297C5.92664 4.4463 5.60664 4.4463 5.41331 4.25297C5.21998 4.05964 5.21998 3.73964 5.41331 3.5463L7.64664 1.31297C7.83998 1.11964 8.15998 1.11964 8.35331 1.31297L10.5866 3.5463C10.78 3.73964 10.78 4.05964 10.5866 4.25297C10.4933 4.35297 10.36 4.39964 10.2333 4.39964Z" fill="#EB1086"/>
</symbol>

<symbol id="plus" width="24" height="24" viewBox="0 0 25 24" fill="none" xmlns="http://www.w3.org/2000/svg">
<path d="M6.5 12H18.5" stroke="white" stroke-width="1.5" stroke-linecap="round" stroke-linejoin="round"/>
<path d="M12.5 18V6" stroke="white" stroke-width="1.5" stroke-linecap="round" stroke-linejoin="round"/>
</symbol>
<symbol id="branch" width="15" height="15" viewBox="0 0 15 15" fill="none" xmlns="http://www.w3.org/2000/svg">
<path d="M1.25 13.75H13.75" stroke="#292D32" stroke-width="1.5" stroke-miterlimit="10" stroke-linecap="round" stroke-linejoin="round"/>
<path d="M7.5 1.25C8.5 1.65 9.625 1.65 10.625 1.25V3.125C9.625 3.525 8.5 3.525 7.5 3.125V1.25Z" stroke="#292D32" stroke-width="1.5" stroke-miterlimit="10" stroke-linecap="round" stroke-linejoin="round"/>
<path d="M7.5 3.125V5" stroke="#292D32" stroke-width="1.5" stroke-miterlimit="10" stroke-linecap="round" stroke-linejoin="round"/>
<path d="M10.625 5H4.375C3.125 5 2.5 5.625 2.5 6.875V13.75H12.5V6.875C12.5 5.625 11.875 5 10.625 5Z" stroke="#292D32" stroke-width="1.5" stroke-miterlimit="10" stroke-linecap="round" stroke-linejoin="round"/>
<path d="M2.86255 7.5H12.1375" stroke="#292D32" stroke-width="1.5" stroke-miterlimit="10" stroke-linecap="round" stroke-linejoin="round"/>
<path d="M4.99365 7.5V13.75" stroke="#292D32" stroke-width="1.5" stroke-miterlimit="10" stroke-linejoin="round"/>
<path d="M7.49365 7.5V13.75" stroke="#292D32" stroke-width="1.5" stroke-miterlimit="10" stroke-linejoin="round"/>
<path d="M9.99365 7.5V13.75" stroke="#292D32" stroke-width="1.5" stroke-miterlimit="10" stroke-linejoin="round"/>
</symbol>
<symbol id="time" width="20" height="20" viewBox="0 0 20 20" fill="none" xmlns="http://www.w3.org/2000/svg">
<path d="M9.99996 18.9596C5.05829 18.9596 1.04163 14.943 1.04163 10.0013C1.04163 5.05964 5.05829 1.04297 9.99996 1.04297C14.9416 1.04297 18.9583 5.05964 18.9583 10.0013C18.9583 14.943 14.9416 18.9596 9.99996 18.9596ZM9.99996 2.29297C5.74996 2.29297 2.29163 5.7513 2.29163 10.0013C2.29163 14.2513 5.74996 17.7096 9.99996 17.7096C14.25 17.7096 17.7083 14.2513 17.7083 10.0013C17.7083 5.7513 14.25 2.29297 9.99996 2.29297Z" fill="#181718"/>
<path d="M13.0916 13.2745C12.9833 13.2745 12.875 13.2495 12.775 13.1828L10.1916 11.6411C9.54995 11.2578 9.07495 10.4161 9.07495 9.67448V6.25781C9.07495 5.91615 9.35828 5.63281 9.69995 5.63281C10.0416 5.63281 10.325 5.91615 10.325 6.25781V9.67448C10.325 9.97448 10.575 10.4161 10.8333 10.5661L13.4166 12.1078C13.7166 12.2828 13.8083 12.6661 13.6333 12.9661C13.5083 13.1661 13.3 13.2745 13.0916 13.2745Z" fill="#181718"/>
</symbol>


</svg>

