<svg>
<symbol id='export'  width="16" height="16" viewBox="0 0 16 16" fill="none" xmlns="http://www.w3.org/2000/svg">
<path d="M10.1733 14.8322H5.82665C2.55332 14.8322 1.15332 13.4322 1.15332 10.1589V10.0722C1.15332 7.11221 2.31999 5.68554 4.93332 5.43888C5.19999 5.41888 5.45332 5.61888 5.47999 5.89221C5.50665 6.16554 5.30665 6.41221 5.02665 6.43888C2.93332 6.63221 2.15332 7.61888 2.15332 10.0789V10.1655C2.15332 12.8789 3.11332 13.8389 5.82665 13.8389H10.1733C12.8867 13.8389 13.8467 12.8789 13.8467 10.1655V10.0789C13.8467 7.60554 13.0533 6.61888 10.92 6.43888C10.6467 6.41221 10.44 6.17221 10.4667 5.89888C10.4933 5.62554 10.7267 5.41888 11.0067 5.44554C13.66 5.67221 14.8467 7.10554 14.8467 10.0855V10.1722C14.8467 13.4322 13.4467 14.8322 10.1733 14.8322Z" fill="#EB1086"/>
<path d="M8 10.5007C7.72667 10.5007 7.5 10.2741 7.5 10.0007V2.41406C7.5 2.14073 7.72667 1.91406 8 1.91406C8.27333 1.91406 8.5 2.14073 8.5 2.41406V10.0007C8.5 10.2741 8.27333 10.5007 8 10.5007Z" fill="#EB1086"/>
<path d="M10.2333 4.39964C10.1066 4.39964 9.97998 4.35297 9.87998 4.25297L7.99998 2.37297L6.11998 4.25297C5.92664 4.4463 5.60664 4.4463 5.41331 4.25297C5.21998 4.05964 5.21998 3.73964 5.41331 3.5463L7.64664 1.31297C7.83998 1.11964 8.15998 1.11964 8.35331 1.31297L10.5866 3.5463C10.78 3.73964 10.78 4.05964 10.5866 4.25297C10.4933 4.35297 10.36 4.39964 10.2333 4.39964Z" fill="#EB1086"/>
</symbol>




</svg>