<svg>
<symbol id="close" width="16" height="16" viewBox="0 0 16 16" xmlns="http://www.w3.org/2000/svg">
<path d="M12.4666 11.532C12.7333 11.7987 12.7333 12.1987 12.4666 12.4654C12.3333 12.5987 12.2 12.6654 12 12.6654C11.8 12.6654 11.6666 12.5987 11.5333 12.4654L7.99998 8.93203L4.46665 12.4654C4.33331 12.5987 4.19998 12.6654 3.99998 12.6654C3.79998 12.6654 3.66665 12.5987 3.53331 12.4654C3.26665 12.1987 3.26665 11.7987 3.53331 11.532L7.06665 7.9987L3.53331 4.46536C3.26665 4.1987 3.26665 3.7987 3.53331 3.53203C3.79998 3.26536 4.19998 3.26536 4.46665 3.53203L7.99998 7.06536L11.5333 3.53203C11.8 3.26536 12.2 3.26536 12.4666 3.53203C12.7333 3.7987 12.7333 4.1987 12.4666 4.46536L8.93331 7.9987L12.4666 11.532Z"/>
<mask id="mask0_3591_21771" style="mask-type:luminance" maskUnits="userSpaceOnUse" x="3" y="3" width="10" height="10">
<path d="M12.4666 11.532C12.7333 11.7987 12.7333 12.1987 12.4666 12.4654C12.3333 12.5987 12.2 12.6654 12 12.6654C11.8 12.6654 11.6666 12.5987 11.5333 12.4654L7.99998 8.93203L4.46665 12.4654C4.33331 12.5987 4.19998 12.6654 3.99998 12.6654C3.79998 12.6654 3.66665 12.5987 3.53331 12.4654C3.26665 12.1987 3.26665 11.7987 3.53331 11.532L7.06665 7.9987L3.53331 4.46536C3.26665 4.1987 3.26665 3.7987 3.53331 3.53203C3.79998 3.26536 4.19998 3.26536 4.46665 3.53203L7.99998 7.06536L11.5333 3.53203C11.8 3.26536 12.2 3.26536 12.4666 3.53203C12.7333 3.7987 12.7333 4.1987 12.4666 4.46536L8.93331 7.9987L12.4666 11.532Z"/>
</mask>
</symbol>

</svg>