<svg>
<symbol width="16" height="17" id='view' viewBox="0 0 16 17" fill="none" xmlns="http://www.w3.org/2000/svg">
        <path d="M7.99995 11.3866C6.40661 11.3866 5.11328 10.0933 5.11328 8.49995C5.11328 6.90661 6.40661 5.61328 7.99995 5.61328C9.59328 5.61328 10.8866 6.90661 10.8866 8.49995C10.8866 10.0933 9.59328 11.3866 7.99995 11.3866ZM7.99995 6.61328C6.95995 6.61328 6.11328 7.45995 6.11328 8.49995C6.11328 9.53995 6.95995 10.3866 7.99995 10.3866C9.03995 10.3866 9.88661 9.53995 9.88661 8.49995C9.88661 7.45995 9.03995 6.61328 7.99995 6.61328Z" fill="#181718" />
        <path d="M7.99997 14.513C5.4933 14.513 3.12664 13.0463 1.49997 10.4997C0.793304 9.39966 0.793304 7.60633 1.49997 6.49966C3.1333 3.95299 5.49997 2.48633 7.99997 2.48633C10.5 2.48633 12.8666 3.95299 14.4933 6.49966C15.2 7.59966 15.2 9.393 14.4933 10.4997C12.8666 13.0463 10.5 14.513 7.99997 14.513ZM7.99997 3.48633C5.84664 3.48633 3.78664 4.77966 2.34664 7.03966C1.84664 7.81966 1.84664 9.17966 2.34664 9.95966C3.78664 12.2197 5.84664 13.513 7.99997 13.513C10.1533 13.513 12.2133 12.2197 13.6533 9.95966C14.1533 9.17966 14.1533 7.81966 13.6533 7.03966C12.2133 4.77966 10.1533 3.48633 7.99997 3.48633Z" fill="#181718" />
 </symbol>
</svg>